<?xml version="1.0" encoding="UTF-8" standalone="no"?>
<svg
        width="100mm"
        height="100mm"
        viewBox="0 0 100 100"
        version="1.1"
        id="svg5"
        xmlns="http://www.w3.org/2000/svg">
    <g id="layer1">
        <circle
                style="fill:#373737;stroke:#000000;stroke-width:1.45;fill-opacity:1;stroke-dasharray:none"
                id="path3080"
                cx="50.129402"
                cy="49.972546"
                r="48.280346"/>
        <ellipse
                style="fill:#373737;fill-opacity:1;stroke:#000000;stroke-width:1.16018;stroke-dasharray:none"
                id="path3080-0"
                cx="50.29356"
                cy="50.193779"
                rx="36.310677"
                ry="36.833721"/>
        <path
                style="fill:#acaa6d;fill-opacity:1;stroke:#000000;stroke-width:1.45"
                d="m 29.125482,45.191656 c 1.32771,3.700537 4.331597,11.232016 5.855324,15.041292 1.523727,3.809275 1.567251,3.896326 6.225594,3.852634 4.658343,-0.04369 13.931023,-0.217826 18.536515,-0.172646 4.605492,0.04518 4.543932,0.309452 5.796004,-3.547979 1.252073,-3.857432 3.817178,-11.834662 4.894646,-15.742864 1.077467,-3.908202 0.666737,-3.745917 -1.738909,-2.914555 -2.405646,0.831362 -6.805936,2.3317 -9.006282,3.103837 -2.200346,0.772137 -2.200346,0.815667 -3.397488,-1.448149 -1.197141,-2.263816 -3.591493,-6.834852 -4.788775,-9.076904 -1.197283,-2.242052 -1.197283,-2.154989 -2.481604,0.130531 -1.28432,2.285521 -3.852808,6.76949 -5.081709,9.021614 -1.228901,2.252125 -1.118522,2.272344 -3.469432,1.619328 -2.350909,-0.653016 -7.162929,-1.979246 -9.743126,-2.70766 -2.580198,-0.728415 -2.928468,-0.859016 -1.600758,2.841521 z"
                id="path12350"
        />
    </g>
</svg>
